<svg width="119" height="17" viewBox="0 0 119 17" fill="none" xmlns="http://www.w3.org/2000/svg">
<path d="M13.1674 0.412955V1.68623C11.8134 0.619433 10.0871 0 8.05615 0C3.58803 0 0 3.78542 0 8.5C0 13.2146 3.58803 17 8.05615 17C10.0871 17 11.8134 16.3806 13.1674 15.3138V16.587H16.6539V0.412955H13.1674ZM8.56389 13.7652C5.65284 13.7652 3.52033 11.3907 3.52033 8.5C3.52033 5.60931 5.65284 3.23482 8.56389 3.23482C10.3241 3.23482 11.9827 3.85425 13.1674 5.5749V11.4251C11.9827 13.1458 10.3241 13.7652 8.56389 13.7652Z" fill="#FDFDFD"/>
<path d="M28.8894 13.7652C25.9445 13.7652 24.0151 11.4251 24.0151 8.5C24.0151 5.5749 25.9445 3.23482 28.8894 3.23482C31.0219 3.23482 32.6128 4.47368 33.0528 6.29757H36.6409C36.0654 2.58097 32.8836 0 28.8894 0C24.1166 0 20.4947 3.7166 20.4947 8.5C20.4947 13.3178 24.1166 17 28.8894 17C32.8836 17 36.0654 14.419 36.6409 10.7024H33.0528C32.6128 12.5263 31.0219 13.7652 28.8894 13.7652Z" fill="#FDFDFD"/>
<path d="M43.933 2.61538V0.412955H40.4127V16.587H43.933V6.40081C45.3547 4.5081 47.2841 3.54454 49.8228 3.4413V0.0688258C47.3857 0.0688258 45.3886 0.997976 43.933 2.61538Z" fill="#FDFDFD"/>
<path d="M59.9903 0C55.1499 0 51.7988 3.7166 51.7988 8.5C51.7988 13.3178 55.1837 17 60.1934 17C63.6461 17 66.4556 15.2794 67.471 12.3543H63.6122C62.9691 13.3866 61.7843 13.8684 60.2273 13.8684C57.2485 13.8684 55.7253 12.0101 55.3868 9.5668H67.8772C68.5542 4.09514 65.2708 0 59.9903 0ZM60.0242 3.02834C62.4952 3.02834 64.1876 4.43927 64.3907 7.08907H55.4545C55.8607 4.81781 57.3839 3.02834 60.0242 3.02834Z" fill="#FDFDFD"/>
<path d="M79.7311 0C74.7891 0 71.2688 3.54453 71.2688 8.5C71.2688 13.4555 74.7891 17 79.7311 17C84.6731 17 88.1935 13.4555 88.1935 8.5C88.1935 3.54453 84.6731 0 79.7311 0ZM79.7311 13.7652C76.8539 13.7652 74.7891 11.5283 74.7891 8.5C74.7891 5.43725 76.8539 3.23482 79.7311 3.23482C82.6083 3.23482 84.6731 5.43725 84.6731 8.5C84.6731 11.5283 82.6083 13.7652 79.7311 13.7652Z" fill="#FDFDFD"/>
<path d="M111.14 0C108.804 0 107.01 0.791498 105.453 2.34008C104.268 0.791498 102.44 0 100.172 0C98.0738 0 96.6521 0.688259 95.4674 1.78947V0.412955H91.947V16.587H95.4674V5.54049C96.6182 3.92308 98.1076 3.23482 99.7662 3.23482C101.831 3.23482 103.32 4.26721 103.32 7.12348V16.587H106.807V7.12348C106.807 6.53846 106.773 5.95344 106.672 5.43725C107.856 3.81984 109.346 3.23482 110.903 3.23482C113.171 3.23482 114.66 4.47368 114.66 7.32996V16.587H118.146V7.32996C118.146 2.54656 115.303 0 111.14 0Z" fill="#FDFDFD"/>
</svg>
