<svg width="116" height="17" viewBox="0 0 116 17" fill="none" xmlns="http://www.w3.org/2000/svg">
    <path d="M12.9282 0.412955V1.68623C11.5988 0.619433 9.90385 0 7.90979 0C3.52285 0 0 3.78542 0 8.5C0 13.2146 3.52285 17 7.90979 17C9.90385 17 11.5988 16.3806 12.9282 15.3138V16.587H16.3513V0.412955H12.9282ZM8.4083 13.7652C5.55015 13.7652 3.45638 11.3907 3.45638 8.5C3.45638 5.60931 5.55015 3.23482 8.4083 3.23482C10.1365 3.23482 11.765 3.85425 12.9282 5.5749V11.4251C11.765 13.1458 10.1365 13.7652 8.4083 13.7652Z" fill="#FDFDFD"/>
    <path d="M28.3645 13.7652C25.4731 13.7652 23.5788 11.4251 23.5788 8.5C23.5788 5.5749 25.4731 3.23482 28.3645 3.23482C30.4583 3.23482 32.0203 4.47368 32.4524 6.29757H35.9752C35.4102 2.58097 32.2862 0 28.3645 0C23.6785 0 20.1224 3.7166 20.1224 8.5C20.1224 13.3178 23.6785 17 28.3645 17C32.2862 17 35.4102 14.419 35.9752 10.7024H32.4524C32.0203 12.5263 30.4583 13.7652 28.3645 13.7652Z" fill="#FDFDFD"/>
    <path d="M43.1349 2.61538V0.412955H39.6785V16.587H43.1349V6.40081C44.5307 4.5081 46.4251 3.54454 48.9177 3.4413V0.0688258C46.5248 0.0688258 44.564 0.997976 43.1349 2.61538Z" fill="#FDFDFD"/>
    <path d="M58.9005 0C54.1479 0 50.8577 3.7166 50.8577 8.5C50.8577 13.3178 54.1812 17 59.0999 17C62.4898 17 65.2482 15.2794 66.2453 12.3543H62.4565C61.8251 13.3866 60.6619 13.8684 59.1331 13.8684C56.2085 13.8684 54.7129 12.0101 54.3806 9.5668H66.6441C67.3088 4.09514 64.085 0 58.9005 0ZM58.9337 3.02834C61.3598 3.02834 63.0215 4.43927 63.2209 7.08907H54.447C54.8459 4.81781 56.3414 3.02834 58.9337 3.02834Z" fill="#FDFDFD"/>
    <path d="M78.2826 0C73.4304 0 69.974 3.54453 69.974 8.5C69.974 13.4555 73.4304 17 78.2826 17C83.1348 17 86.5912 13.4555 86.5912 8.5C86.5912 3.54453 83.1348 0 78.2826 0ZM78.2826 13.7652C75.4577 13.7652 73.4304 11.5283 73.4304 8.5C73.4304 5.43725 75.4577 3.23482 78.2826 3.23482C81.1075 3.23482 83.1348 5.43725 83.1348 8.5C83.1348 11.5283 81.1075 13.7652 78.2826 13.7652Z" fill="#FDFDFD"/>
    <path d="M109.12 0C106.827 0 105.066 0.791498 103.537 2.34008C102.374 0.791498 100.579 0 98.3525 0C96.292 0 94.8962 0.688259 93.733 1.78947V0.412955H90.2766V16.587H93.733V5.54049C94.8629 3.92308 96.3252 3.23482 97.9537 3.23482C99.981 3.23482 101.443 4.26721 101.443 7.12348V16.587H104.866V7.12348C104.866 6.53846 104.833 5.95344 104.734 5.43725C105.897 3.81984 107.359 3.23482 108.888 3.23482C111.115 3.23482 112.577 4.47368 112.577 7.32996V16.587H116V7.32996C116 2.54656 113.208 0 109.12 0Z" fill="#FDFDFD"/>
</svg>
